# xmcd
#
# Track frame offsets: 
#        150
#        19168
#        36437
#        51057
#        69154
#        86553
#        107106
#        127488
#        140628
#        155257
#        169757
#        190190
#        208307
#        224088
#        242569
#        258507
#        275097
#        292045
#        310393
#        326710
#        340165
#
# Disc length: 4757 seconds
#
# Revision: 0
# Processed by: cddbd v1.5.1PL0 Copyright (c) Steve Scherf et al.
# Submitted via: ExactAudioCopy v0.95a3
#
DISCID=56129315
DTITLE=Various Artist - Хит Парад От Русской Дикотеки №7
DYEAR=2001
DGENRE=Pop
TTITLE0=Таня Буланова - Ты Не Любил
TTITLE1=Чай Вдвоём - Ласковая Моя
TTITLE2=Алла Пугачёва - Речной Трамвайчик
TTITLE3=Руки Вверх! - 18 Мне Уже
TTITLE4=Премьер-Министр - Всего Минуту Назад
TTITLE5=Тату - На Не Догонят (Dance Mix)
TTITLE6=Оскар - Пятый Угол
TTITLE7=И.К.С. Миссия - Рядом Со Мной
TTITLE8=Кристина Орбакайте - Робот
TTITLE9=Николай Трубач - Злая Такая
TTITLE10=Стрелки - Весна-Весна
TTITLE11=Валерий Меладзе - Не Уходи
TTITLE12=Адреналин - Шаб-Да-Будай
TTITLE13=Dagaz - Любви Не Искала
TTITLE14=Ай! Яй! Яй! - Ай, Девчонка
TTITLE15=Левостороннее Движение - Чао, Бамбина '2001
TTITLE16=Шан-Хай - Сиреневый Вечер
TTITLE17=Вирус - Девчонка
TTITLE18=Лето - Позови
TTITLE19=Марафон - Синей Иней 2001
TTITLE20=Шура - Что Случилось С Нами?
EXTD=
EXTT0=
EXTT1=
EXTT2=
EXTT3=
EXTT4=
EXTT5=
EXTT6=
EXTT7=
EXTT8=
EXTT9=
EXTT10=
EXTT11=
EXTT12=
EXTT13=
EXTT14=
EXTT15=
EXTT16=
EXTT17=
EXTT18=
EXTT19=
EXTT20=
PLAYORDER=
